<svg xmlns="http://www.w3.org/2000/svg" version="1.1" xmlns:xlink="http://www.w3.org/1999/xlink" width="512" height="512" x="0" y="0" viewBox="0 0 64 64" style="enable-background:new 0 0 512 512" xml:space="preserve" class=""><g><path fill="#518c46" d="M23 2h18v8H23z" opacity="1" data-original="#518c46" class=""></path><path fill="#67ac5c" d="M23 2v6h13a3 3 0 0 0 3-3V2z" opacity="1" data-original="#67ac5c" class=""></path><path fill="#e0e0e0" d="M4 24h56v34H4z" opacity="1" data-original="#e0e0e0"></path><path fill="#ffffff" d="M28 36h28v18H28z" opacity="1" data-original="#ffffff"></path><path fill="#d1d8dc" d="M52 40h4v14h-4zM28 40h4v14h-4z" opacity="1" data-original="#d1d8dc"></path><g fill="#f7c244"><path d="M36 42h4v4h-4zM44 42h4v4h-4zM44 50h4v4h-4zM36 50h4v4h-4z" fill="#f7c244" opacity="1" data-original="#f7c244"></path></g><path fill="#518c46" d="m2 24 11-10h38l11 10z" opacity="1" data-original="#518c46" class=""></path><path fill="#67ac5c" d="M26 24v2a6 6 0 0 0 12 0v-2z" opacity="1" data-original="#67ac5c" class=""></path><path fill="#518c46" d="M38 24v2a6 6 0 0 0 12 0v-2z" opacity="1" data-original="#518c46" class=""></path><path fill="#67ac5c" d="M2.063 24v1.937a6 6 0 0 0 12 0V24z" opacity="1" data-original="#67ac5c" class=""></path><path fill="#518c46" d="M14 24v2a6 6 0 0 0 12 0v-2z" opacity="1" data-original="#518c46" class=""></path><path fill="#67ac5c" d="M50 24v2a6 6 0 0 0 12 0v-2z" opacity="1" data-original="#67ac5c" class=""></path><path fill="#3d6935" d="m38 24-4-10h7.001L50 24zM26 24l4-10h-7.001L14 24z" opacity="1" data-original="#3d6935" class=""></path><path fill="#518c46" d="M2 58h60v4H2z" opacity="1" data-original="#518c46" class=""></path><path fill="#e0e0e0" d="M24 10h2v4h-2zM38 10h2v4h-2zM26 5h12v2H26z" opacity="1" data-original="#e0e0e0"></path><path fill="#74574a" d="M8 36h16v22H8z" opacity="1" data-original="#74574a"></path><path fill="#594139" d="M11 45h2v4h-2z" opacity="1" data-original="#594139"></path><path fill="#b3bec4" d="M32 45h20v2H32z" opacity="1" data-original="#b3bec4"></path></g></svg>